<svg width="176" height="30" viewBox="0 0 176 30" fill="none" xmlns="http://www.w3.org/2000/svg">
<path fill-rule="evenodd" clip-rule="evenodd" d="M2.79676 16.245C2.56799 15.6047 2.42219 14.9696 2.34425 14.3395C2.37694 13.6154 2.47749 12.8837 2.64592 12.152C4.14421 5.68612 10.5471 1.67193 16.9475 3.18614C22.3926 4.47678 26.0805 9.35478 26.1333 14.7663C25.8694 12.9345 25.178 11.3847 24.2026 10.028C22.8502 8.14544 20.839 6.55755 18.3151 5.74709C16.6509 5.21356 14.8258 5.14497 13.0635 5.49049C8.76979 6.33144 6.57264 9.15915 6.21818 12.1393C5.33831 19.5503 14.3959 22.6626 19.6273 18.9761C19.2151 20.033 18.3427 20.9553 17.2668 21.6641C11.9599 25.1575 4.88078 22.1113 2.79676 16.245ZM25.2033 13.7602C25.432 14.4005 25.5778 15.0356 25.6558 15.6657L25.6532 15.6606C25.6206 16.3847 25.52 17.1164 25.3516 17.8481C23.8533 24.314 17.4504 28.3282 11.0525 26.814C5.60739 25.5259 1.91949 20.6479 1.8667 15.2363C2.13066 17.0707 2.82198 18.6179 3.79738 19.9746C5.14986 21.8572 7.16098 23.4451 9.68493 24.2555C11.3491 24.7891 13.1742 24.8577 14.9365 24.5121C19.2302 23.6712 21.4274 20.8435 21.7818 17.8633C22.6617 10.4523 13.6041 7.34007 8.37268 11.0265C8.78496 9.96961 9.65728 9.04737 10.7332 8.33853C16.0401 4.84772 23.1192 7.89392 25.2033 13.7602Z" fill="url(#paint0_linear_1771_41732)"/>
<path d="M46.3871 22.6481H49.6716L43.1261 7H40.7331L34 22.6481H37.3079L38.6921 19.3636H45.0029L46.3871 22.6481ZM39.654 16.8768L41.8827 11.2463L44.1114 16.8768H39.654Z" fill="#12102D"/>
<path d="M51.4985 7V22.6481H54.5484V7H51.4985Z" fill="#12102D"/>
<path d="M66.6452 7H63.5953V22.6481H66.6452V15.6804H73.261V22.6481H76.3108V7H73.261V13.0528H66.6452V7Z" fill="#12102D"/>
<path d="M79.8847 7V16.5718C79.8847 18.0499 80.1193 19.5513 81.0577 20.7478C82.1838 22.2258 84.1545 23 86.1721 23C88.1897 23 90.1604 22.2258 91.2865 20.7478C92.2249 19.5513 92.4595 18.0499 92.4595 16.5718V7H89.4096V16.8299C89.4096 18.0264 89.0108 18.7537 88.6589 19.1525C88.2132 19.6921 87.392 20.2317 86.1721 20.2317C84.9522 20.2317 84.131 19.6921 83.6853 19.1525C83.3334 18.7537 82.9346 18.0264 82.9346 16.8299V7H79.8847Z" fill="#12102D"/>
<path d="M95.239 22.6481H98.3358L99.9311 13.0059L103.943 22.6481H104.975L109.174 13.0059L110.582 22.6481H113.679L111.051 7H108.846L104.506 16.9472L100.353 7H98.1481L95.239 22.6481Z" fill="#12102D"/>
<path d="M127.101 22.6481H130.385L123.84 7H121.447L114.714 22.6481H118.022L119.406 19.3636H125.717L127.101 22.6481ZM120.368 16.8768L122.597 11.2463L124.825 16.8768H120.368Z" fill="#12102D"/>
<path d="M135.262 22.6481V12.1848L144.787 22.6481H146.899V7H143.849V17.4399L134.324 7H132.212V22.6481H135.262Z" fill="#12102D"/>
<defs>
<linearGradient id="paint0_linear_1771_41732" x1="14" y1="2.8667" x2="14" y2="27.1334" gradientUnits="userSpaceOnUse">
<stop stop-color="#5548FF"/>
<stop offset="1" stop-color="#00D3D3"/>
</linearGradient>
</defs>
</svg>
