<svg width="176" height="30" viewBox="0 0 176 30" fill="none" xmlns="http://www.w3.org/2000/svg">
<g clip-path="url(#clip0_1771_41759)">
<path d="M4.6665 5.00391V25.071L8.98301 23.896V6.42869L4.6665 5.00391Z" fill="#014CFF"/>
<path d="M8.98291 23.8959V26.6469L13.4887 24.8347V22.67L8.98291 23.8959Z" fill="#3490FF"/>
<path d="M13.4887 5.64192L8.98291 3.42798V6.42869L13.4887 7.91632V5.64192Z" fill="#3490FF"/>
<path d="M13.4887 7.91622L8.98291 6.42859V23.8959L13.4887 22.67V7.91622Z" fill="#196EFF"/>
<path d="M13.4888 1V5.64187L19.0312 8.36495V22.6064L13.4888 24.8346V29L22.9499 24.2396V7.06665L13.4888 1Z" fill="#67D4FF"/>
<path d="M19.0312 8.36492L13.4888 5.64185V7.91624L15.1291 8.4572V22.2237L13.4888 22.67V24.8346L19.0312 22.6064V8.36492Z" fill="#4DB2FF"/>
<path d="M15.1291 22.2237V8.45721L13.4888 7.91626V22.67L15.1291 22.2237Z" fill="#3490FF"/>
</g>
<path d="M44.1205 23.6557H47.3343L40.9297 8.34433H38.5882L32 23.6557H35.2367L36.5911 20.4419H42.7661L44.1205 23.6557ZM37.5323 18.0086L39.7131 12.4993L41.8938 18.0086H37.5323Z" fill="#12102D"/>
<path d="M49.122 8.34433V23.6557H52.1062V8.34433H49.122Z" fill="#12102D"/>
<path d="M63.9426 8.34433H60.9584V23.6557H63.9426V17.1363L64.2869 16.792L69.7274 23.6557H73.6758L66.858 15.4146L73.3314 8.34433H69.5667L63.9426 14.8178V8.34433Z" fill="#12102D"/>
<path d="M75.5522 8.34433V23.6557H78.5364V8.34433H75.5522Z" fill="#12102D"/>
<path d="M89.4684 8C84.6478 8 81.2963 11.3515 81.2963 16.0115C81.2963 20.6714 84.6478 24 89.4684 24C94.2891 24 97.6406 20.6714 97.6406 16.0115C97.6406 11.3515 94.2891 8 89.4684 8ZM89.4684 21.2912C86.4842 21.2912 84.3723 19.1105 84.3723 16.0115C84.3723 12.9125 86.4842 10.7088 89.4684 10.7088C92.4527 10.7088 94.5646 12.9125 94.5646 16.0115C94.5646 19.1105 92.4527 21.2912 89.4684 21.2912Z" fill="#12102D"/>
<path d="M109.481 9.79053C107.92 8.18365 106.107 8 105.143 8C101.745 8 100.23 10.2496 100.23 12.4993C100.23 14.0603 100.942 14.9096 101.447 15.3458C102.227 16.0344 103.191 16.4017 103.995 16.6772C104.867 16.9756 105.785 17.274 106.359 17.802C106.772 18.1923 106.956 18.6284 106.956 19.1793C106.956 20.4648 105.946 21.2912 104.592 21.2912C103.513 21.2912 102.112 20.7403 101.378 19.2482L99.4266 21.1076C100.23 22.2783 101.883 24 104.706 24C107.874 24 110.032 21.957 110.032 18.9727C110.032 17.4118 109.412 16.3788 108.724 15.759C107.943 15.0473 106.818 14.6341 105.625 14.2209C104.66 13.8766 104.155 13.693 103.788 13.3486C103.421 13.0273 103.306 12.6829 103.306 12.3156C103.306 11.5352 103.811 10.5251 105.418 10.5251C105.969 10.5251 107.025 10.6399 107.92 11.8336L109.481 9.79053Z" fill="#12102D"/>
<path d="M115.637 8.34433H112.653V23.6557H115.637V17.1363L115.982 16.792L121.422 23.6557H125.371L118.553 15.4146L125.026 8.34433H121.261L115.637 14.8178V8.34433Z" fill="#12102D"/>
<defs>
<clipPath id="clip0_1771_41759">
<rect width="28" height="28" fill="white" transform="translate(0 1)"/>
</clipPath>
</defs>
</svg>
