<svg width="176" height="30" viewBox="0 0 176 30" fill="none" xmlns="http://www.w3.org/2000/svg">
<path fill-rule="evenodd" clip-rule="evenodd" d="M29.1272 3.57038C29.1272 5.54225 27.5444 7.14077 25.592 7.14077C23.6395 7.14077 22.0566 5.54225 22.0566 3.57038C22.0566 1.59852 23.6395 0 25.592 0C27.5444 0 29.1272 1.59852 29.1272 3.57038ZM0.75 18.1158C0.75 11.5525 6.01852 6.23155 12.5172 6.23155C19.017 6.23155 24.2844 11.5525 24.2844 18.1158C24.2844 24.6791 19.0159 30 12.5172 30C6.01852 30 0.75 24.6791 0.75 18.1158ZM6.30891 18.1158C6.30891 21.5782 9.08892 24.3858 12.5172 24.3858C15.9455 24.3858 18.7256 21.5782 18.7256 18.1158C18.7256 14.6533 15.9455 11.8457 12.5172 11.8457C9.08892 11.8457 6.30891 14.6533 6.30891 18.1158Z" fill="#00CBFF"/>
<path fill-rule="evenodd" clip-rule="evenodd" d="M63.6353 12.5247C64.1809 12.5247 65.2263 12.6394 66.1131 13.8332L67.6593 11.7902C66.1141 10.1833 64.3186 10 63.3639 10C60.0004 10 58.5002 12.2496 58.5002 14.4991C58.5002 16.0606 59.2054 16.9099 59.7051 17.3462C60.4781 18.0352 61.4328 18.4019 62.2278 18.678L62.3378 18.7159C63.168 19.0018 64.0244 19.2967 64.569 19.8022C64.9779 20.1921 65.1595 20.6283 65.1595 21.1794C65.1595 22.4649 64.159 23.291 62.8183 23.291C61.75 23.291 60.3635 22.7399 59.6362 21.2479L57.7031 23.1056C58.4992 24.2762 60.135 25.9979 62.9311 25.9979C66.0672 25.9979 68.2039 23.9548 68.2039 20.9709C68.2039 19.4104 67.5894 18.3768 66.9081 17.7572C66.1351 17.0459 65.0218 16.6328 63.8398 16.2198C62.8851 15.8753 62.3844 15.692 62.0213 15.3474C61.6582 15.026 61.5446 14.6825 61.5446 14.3148C61.5446 13.535 62.0442 12.5247 63.6353 12.5247ZM40.6594 22.4407H34.5457L33.205 25.6544H30L36.5226 10.3435H38.8409L45.182 25.6544H42L40.6594 22.4407ZM39.7955 20.0078L37.6359 14.4992L35.4763 20.0078H39.7955ZM49.9091 10.3447V25.6556H46.9545V10.3447H49.9091ZM75.3393 12.9156V25.6546H72.3848V12.9146H68.9752V10.3447H78.7488V12.9156H75.3393ZM83.5664 19.9625V10.3447H80.6117V19.7097C80.6117 21.1563 80.8392 22.6252 81.7479 23.7958C82.8392 25.2424 84.7484 26.0001 86.7025 26.0001C88.6566 26.0001 90.5658 25.2414 91.6571 23.7958C92.5659 22.6252 92.7933 21.1553 92.7933 19.7097V10.3447H89.8387V19.9625C89.8387 21.1332 89.4526 21.8454 89.1114 22.2353C88.6796 22.7632 87.8845 23.2911 86.7025 23.2911C85.5204 23.2911 84.7255 22.7632 84.2935 22.2353C83.9524 21.8444 83.5664 21.1332 83.5664 19.9625ZM100.202 10.3447C102.316 10.3447 104.157 10.5744 105.839 11.8367C107.681 13.237 108.749 15.4634 108.749 18.0122C108.749 20.56 107.704 22.7632 105.704 24.1867C103.931 25.4489 102.271 25.6556 100.157 25.6556H96.2482V10.3447H100.202ZM99.2019 23.0836H100.111C100.861 23.0836 102.497 23.0372 103.815 22.0732C105.02 21.2006 105.702 19.6401 105.702 18.0102C105.702 16.4033 105.042 14.8418 103.838 13.9241C102.611 13.0053 101.111 12.9136 100.111 12.9136H99.2019V23.0836ZM114.429 25.6556V10.3447H111.475V25.6556H114.429ZM133.339 18.0111C133.339 22.6704 130.021 25.9989 125.247 25.9989C120.474 25.9989 117.156 22.6704 117.156 18.0111C117.156 13.3507 120.475 10 125.247 10C130.021 10 133.339 13.3507 133.339 18.0111ZM130.294 18.0111C130.294 14.9123 128.203 12.708 125.248 12.708C122.294 12.708 120.203 14.9123 120.203 18.0111C120.203 21.1099 122.294 23.2899 125.248 23.2899C128.203 23.2899 130.294 21.1099 130.294 18.0111ZM141.042 12.5247C141.588 12.5247 142.633 12.6394 143.519 13.8332L145.065 11.7902C143.519 10.1833 141.725 10 140.769 10C137.406 10 135.906 12.2496 135.906 14.4991C135.906 16.0606 136.611 16.9099 137.111 17.3462C137.884 18.0352 138.839 18.4019 139.634 18.678C139.672 18.6909 139.709 18.7039 139.747 18.7169C140.576 19.0025 141.431 19.2973 141.975 19.8022C142.384 20.1921 142.565 20.6283 142.565 21.1794C142.565 22.4649 141.565 23.291 140.224 23.291C139.156 23.291 137.769 22.7399 137.042 21.2479L135.11 23.1056C135.906 24.2762 137.542 25.9979 140.338 25.9979C143.474 25.9979 145.61 23.9548 145.61 20.9709C145.61 19.4104 144.996 18.3768 144.315 17.7572C143.541 17.0459 142.429 16.6328 141.246 16.2198C140.292 15.8753 139.792 15.692 139.428 15.3474C139.065 15.026 138.952 14.6825 138.952 14.3148C138.952 13.535 139.451 12.5247 141.042 12.5247Z" fill="#12102D"/>
</svg>
