<svg class="svg-icon" style="width: 1em; height: 1em;vertical-align: middle;fill: currentColor;overflow: hidden;" viewBox="0 0 1024 1024" version="1.1" xmlns="http://www.w3.org/2000/svg"><path d="M269.401218 348.095l484.587674 0 0 11.106965c0 120.589472 0.023536 241.183038-0.011256 361.76944-0.011256 40.771589-21.756513 62.327534-62.705134 62.342884-10.184967 0-20.37198 0-29.858028 0 0 43.198871 0.467651 85.178985-0.171915 127.141702-0.397043 26.024723-22.889313 47.623647-48.671513 48.568159-27.686573 1.013073-52.970422-18.175965-53.951773-44.760436-1.579985-42.982954-0.425695-86.064145-0.425695-130.026402l-92.891643 0c0 17.075911 0.033769 34.169217-0.005117 51.256384-0.055259 25.179472 0.483001 50.374294-0.428765 75.523067-0.896416 24.611537-20.249183 44.734854-44.115754 47.749514-25.325805 3.202948-49.012274-11.464099-56.531528-35.426861-1.660826-5.300726-2.638083-11.033287-2.675946-16.571421-0.234337-35.778878-0.174985-71.555709-0.064468-107.33561 0.013303-4.910846 0.836041-9.815553 1.417279-16.121166-12.051477 0-23.86657 0.073678-35.68678-0.011256-34.978652-0.254803-57.743122-22.928199-57.767682-58.021461-0.100284-122.571616-0.039909-245.152443-0.042979-367.729176L269.400195 348.095 269.401218 348.095zM754.197646 312.328401 268.922311 312.328401c4.508687-83.888596 52.172243-136.038326 123.015731-173.068707-7.217379-10.940167-14.230096-21.587668-21.263279-32.217772-5.119601-7.730055-10.30674-15.407921-15.398712-23.150256-3.591805-5.460362-9.344832-11.614525-1.36509-17.062608 8.616238-5.885034 12.135388 2.347464 15.941064 7.959276 9.094122 13.428847 18.064424 26.946722 27.064402 40.440038 11.086499 16.617469 11.078313 16.613376 30.132274 11.05887 60.601216-17.662265 120.804367-16.659425 180.590008 3.89061 2.139733 0.738827 4.331655 1.331321 7.135514 2.183735 12.395308-18.558681 24.680099-36.96182 36.96489-55.358819 1.471514-2.206248 2.910283-4.427846 4.428869-6.598278 3.459798-4.948709 7.856945-7.618515 13.384845-3.53757 5.008061 3.693112 4.154623 8.404414 0.994654 13.125949-10.67513 15.95232-21.285792 31.954783-31.911804 47.940872-2.371 3.571339-4.705162 7.167237-7.42204 11.304464 70.458725 36.700877 118.544907 88.950891 122.990149 173.090197L754.197646 312.328401zM641.381208 217.968313c0.150426-14.033621-11.603269-25.974581-25.713638-26.131147-14.242376-0.159636-25.844621 11.30651-25.957185 25.65224-0.116657 14.520715 11.002588 25.810852 25.501814 25.904996C629.645932 243.481384 641.236921 232.223992 641.381208 217.968313L641.381208 217.968313zM433.369663 217.34512c-0.187265-14.328333-11.883655-25.780153-26.066679-25.512047-14.080693 0.260943-25.824155 12.32777-25.576515 26.275433 0.251733 14.231119 11.936867 25.453718 26.327622 25.300222C422.521594 243.255233 433.556928 231.894488 433.369663 217.34512L433.369663 217.34512zM892.258025 510.583744c-0.004093 36.07359 0.095167 72.149227-0.028653 108.219747-0.11154 31.752168-21.937638 54.680367-51.753711 54.658877-29.79049-0.017396-51.8059-23.100114-51.836599-54.654784-0.067538-73.140811-0.149403-146.276505 0.061398-219.415268 0.075725-26.923186 19.805068-48.538483 45.833885-51.248198 27.095102-2.819209 50.834782 13.987572 56.574506 40.425711 1.105171 5.102205 1.090844 10.510378 1.105171 15.782451 0.089028 35.413558 0.045025 70.821999 0.040932 106.234533L892.258025 510.583744zM234.306932 510.587837c0 37.7293 0.35918 75.465762-0.132006 113.184829-0.302899 23.12672-16.584724 42.608423-38.748513 48.26526-21.668509 5.526877-45.432749-3.454682-56.523341-23.153326-4.52199-8.035-7.7935-17.987676-7.869225-27.101241-0.624217-74.130348-0.546446-148.266835-0.252757-222.399229 0.116657-29.218462 23.174815-51.633984 51.857065-51.633984 28.801976 0.004093 51.323922 22.078855 51.64831 51.639101 0.414439 37.065174 0.102331 74.132394 0.102331 111.199615-0.028653 0-0.055259 0-0.084934 0L234.306932 510.588861zM234.306932 510.587837"  /></svg>