<svg width="176" height="30" viewBox="0 0 176 30" fill="none" xmlns="http://www.w3.org/2000/svg">
<path d="M24.258 8.5L13 2L7.3125 11.75L24.258 8.5Z" fill="#35BDF6"/>
<path d="M13.0002 2L1.74219 8.5L7.31266 11.75L13.0002 2Z" fill="#00EDED"/>
<path d="M1.74219 8.5V21.5L7.31266 11.75L1.74219 8.5Z" fill="#00D3D3"/>
<path d="M24.2581 21.5L13.0001 28L10.7251 21.5L24.2581 8.5V21.5Z" fill="#3196E0"/>
<path d="M7.31251 11.75L1.73877 21.5L12.9968 28L7.31251 11.75Z" fill="#5548FF"/>
<g clip-path="url(#clip0_521_1983)">
<path fill-rule="evenodd" clip-rule="evenodd" d="M33 23.1864V6.80005H37.3064C39.4933 6.80005 41.602 7.30986 43.1767 8.68626C44.7833 10.0905 45.625 12.2116 45.625 14.9807C45.625 17.7454 44.7941 19.8719 43.1931 21.2839C41.6219 22.6695 39.511 23.1864 37.3064 23.1864H33ZM35.5945 9.39456V20.5919H37.3064C39.1498 20.5919 40.5496 20.1559 41.477 19.338C42.3746 18.5464 43.0304 17.2187 43.0304 14.9807C43.0304 12.7471 42.3694 11.4265 41.4693 10.6397C40.5373 9.8251 39.1353 9.39456 37.3064 9.39456H35.5945ZM72.6004 23.1864V6.81369H78.2012C79.9907 6.81369 81.4374 7.36556 82.431 8.40742C83.4111 9.4352 83.802 10.7849 83.802 12.1042C83.802 13.4236 83.4111 14.7732 82.431 15.801C81.4374 16.8429 79.9907 17.3948 78.2012 17.3948H75.1949V23.1864H72.6004ZM75.1949 9.40819V14.8003H78.2012C79.4495 14.8003 80.1546 14.4287 80.5534 14.0105C80.9656 13.5782 81.2075 12.9313 81.2075 12.1042C81.2075 11.2772 80.9656 10.6302 80.5534 10.198C80.1546 9.77976 79.4495 9.40819 78.2012 9.40819H75.1949ZM48.0208 6.81369H57.8691V9.40819H50.6153V13.7096H57.4553V16.3041H50.6153V20.6055H57.8691V23.2H48.0208V6.81369ZM60.3106 23.2V6.81369H70.1588V9.40819H62.9051V13.7096H69.7451V16.3041H62.9051V20.6055H70.1588V23.2H60.3106ZM128.314 23.1865V6.80009L130.908 6.80005V23.1865H128.314ZM126.802 23.1864L120.942 6.80009H119.163L113.303 23.1864H116.058L117.444 19.3117H122.661L124.047 23.1864H126.802ZM120.052 12.0179L121.733 16.7172H118.372L120.052 12.0179ZM134.732 6.80009V23.1864H137.326V10.9915L144.941 23.1864H147.977V6.80005H145.383V18.995L137.768 6.80009H134.732ZM108.762 16.8336L112.392 23.1864H109.404L106.036 17.2927H103.188V23.1828H100.593V6.81374H106.073C107.751 6.81374 109.217 7.23571 110.271 8.20478C111.342 9.1891 111.798 10.5609 111.798 12.0532C111.798 13.5456 111.342 14.9174 110.271 15.9017C109.834 16.3033 109.326 16.611 108.762 16.8336ZM103.188 9.40825V14.6982H106.073C107.346 14.6982 108.094 14.3786 108.516 13.9913C108.921 13.6193 109.203 13.0199 109.203 12.0532C109.203 11.0866 108.921 10.4872 108.516 10.1152C108.094 9.72788 107.346 9.40825 106.073 9.40825H103.188ZM97.0758 11.5385C97.0758 12.7151 96.7356 13.8425 96.0015 14.7168C96.0468 14.7493 96.0915 14.7826 96.1357 14.8167C97.2201 15.6549 97.8236 16.9007 97.8236 18.3934C97.8236 19.8862 97.2201 21.132 96.1357 21.9702C95.0931 22.776 93.7233 23.1182 92.2888 23.1182H86.2554V6.81375L92.448 6.81375C93.8181 6.81375 95.0126 7.2903 95.8578 8.19771C96.6913 9.09243 97.0758 10.2876 97.0758 11.5385ZM88.8499 20.5237V16.2632H92.2888C93.347 16.2632 94.0959 16.5193 94.549 16.8695C94.9602 17.1873 95.2291 17.6552 95.2291 18.3934C95.2291 19.1316 94.9602 19.5996 94.549 19.9174C94.0959 20.2676 93.347 20.5237 92.2888 20.5237H88.8499ZM88.8499 9.40825V13.6687H92.448C93.1988 13.6687 93.6696 13.422 93.9594 13.1108C94.261 12.787 94.4813 12.2685 94.4813 11.5385C94.4813 10.8085 94.261 10.2899 93.9594 9.96613C93.6696 9.65501 93.1988 9.40825 92.448 9.40825H88.8499ZM164.299 6.80005L170.426 23.1864H166.635L165.525 20.2178H160.185L159.075 23.1864H155.284L161.411 6.80005H164.299ZM164.198 16.6674L162.855 13.0755L161.512 16.6674H164.198ZM171.806 6.80005V23.1864H175.356V6.80005H171.806Z" fill="#12102D"/>
</g>
<defs>
<clipPath id="clip0_521_1983">
<rect width="143" height="18" fill="white" transform="translate(33 6)"/>
</clipPath>
</defs>
</svg>
