<svg class="svg-icon" style="width: 1em;height: 1em;vertical-align: middle;fill: currentColor;overflow: hidden;" viewBox="0 0 1024 1024" version="1.1" xmlns="http://www.w3.org/2000/svg"><path d="M808.449745 549.748364c-1.349818-128.162909 112.174545-189.579636 117.224728-192.674909-63.813818-86.993455-163.188364-98.862545-198.586182-100.282182-84.549818-7.936-165.003636 46.405818-207.941818 46.405818-42.821818 0-109.056-45.218909-179.2-43.985455-92.206545 1.233455-177.245091 49.896727-224.651637 126.836364C19.504291 540.904727 90.765382 770.280727 184.112291 895.860364c45.614545 61.509818 100.026182 130.513455 171.426909 128.069818 68.770909-2.583273 94.789818-41.495273 177.92-41.495273 83.153455 0 106.496 41.472 179.293091 40.215273 74.007273-1.303273 120.901818-62.650182 166.213818-124.322909 52.363636-71.284364 73.937455-140.334545 75.217455-143.895273-1.629091-0.698182-144.337455-51.595636-145.733819-204.683636zM700.3712 177.058909C741.517382 130.141091 769.281745 64.977455 761.718109 0c-59.298909 2.280727-131.165091 37.143273-173.661091 83.991273-38.213818 41.541818-71.586909 107.892364-62.626909 171.566545 66.187636 4.887273 133.701818-31.604364 174.941091-78.452363v-0.046546z"  /></svg>